<svg xmlns="http://www.w3.org/2000/svg" width="35.356" height="24.746" viewBox="0 0 35.356 24.746">
  <path id="Icon_awesome-users-cog" data-name="Icon awesome-users-cog" d="M33.73,19.34a6.481,6.481,0,0,0,0-2.354l1.425-.823a.4.4,0,0,0,.182-.47A8.291,8.291,0,0,0,33.5,12.522a.4.4,0,0,0-.5-.077l-1.425.823a6.487,6.487,0,0,0-2.039-1.177V10.445a.4.4,0,0,0-.315-.392,8.336,8.336,0,0,0-3.658,0,.4.4,0,0,0-.315.392v1.646a6.487,6.487,0,0,0-2.039,1.177l-1.425-.823a.4.4,0,0,0-.5.077,8.291,8.291,0,0,0-1.834,3.171.407.407,0,0,0,.182.47l1.425.823a6.481,6.481,0,0,0,0,2.354l-1.425.823a.4.4,0,0,0-.182.47A8.333,8.333,0,0,0,21.293,23.8a.4.4,0,0,0,.5.077l1.425-.823a6.487,6.487,0,0,0,2.039,1.177v1.646a.4.4,0,0,0,.315.392,8.336,8.336,0,0,0,3.658,0,.4.4,0,0,0,.315-.392V24.235a6.487,6.487,0,0,0,2.039-1.177l1.425.823a.4.4,0,0,0,.5-.077,8.291,8.291,0,0,0,1.834-3.171.407.407,0,0,0-.182-.47L33.73,19.34Zm-6.326,1.5a2.68,2.68,0,1,1,2.68-2.68A2.682,2.682,0,0,1,27.4,20.843ZM5.3,12.859A3.536,3.536,0,1,0,1.768,9.323,3.539,3.539,0,0,0,5.3,12.859ZM17.68,14.627c.1,0,.2-.028.309-.033a10.185,10.185,0,0,1,2.006-3.271,2.178,2.178,0,0,1,1.6-.7,2.124,2.124,0,0,1,1.083.293l.436.254c.044-.028.088-.05.133-.077a6.115,6.115,0,0,0,.619-2.652,6.185,6.185,0,1,0-6.182,6.182Zm5.812,10.746c-.127-.066-.254-.144-.376-.215A2.73,2.73,0,0,1,21.6,25.7,2.2,2.2,0,0,1,20,25a10.074,10.074,0,0,1-2.221-3.845A2.358,2.358,0,0,1,19.2,18.379q-.008-.215,0-.431l-.436-.254a2.251,2.251,0,0,1-.541-.448c-.182.011-.359.033-.541.033A8.722,8.722,0,0,1,13.9,16.4h-.459a6.368,6.368,0,0,0-6.37,6.365v1.591A2.653,2.653,0,0,0,9.724,27H23.835a2.127,2.127,0,0,1-.343-1.122v-.508ZM9.564,15.655a3.526,3.526,0,0,0-2.492-1.028H3.536A3.539,3.539,0,0,0,0,18.163v1.768A1.766,1.766,0,0,0,1.768,21.7H5.409a8.1,8.1,0,0,1,4.155-6.044Z" transform="translate(0 -2.257)" fill="#fff"/>
</svg>
