<svg xmlns="http://www.w3.org/2000/svg" width="28.971" height="21.953" viewBox="0 0 28.971 21.953">
  <path id="Icon_metro-profile" data-name="Icon metro-profile" d="M31.4,10.848H29.374V7.777l-4.182-.065.022,3.136H12.647l.086-3.136-4.1.065v3.136l-2.069-.065A2.081,2.081,0,0,0,4.5,12.939V27.575a2.081,2.081,0,0,0,2.069,2.091H31.4a2.081,2.081,0,0,0,2.069-2.091V12.939A2.081,2.081,0,0,0,31.4,10.848ZM26.227,8.758H28.3v4.182H26.227ZM12.776,15.879c1.25,0,2.264,1.345,2.264,3.006s-1.014,3.006-2.264,3.006-2.264-1.345-2.264-3.006,1.014-3.006,2.264-3.006Zm-3.1-7.121h2.069v4.182H9.672ZM8.293,25.429s.245-1.988.8-2.364a7.872,7.872,0,0,1,2.162-.625s1.041,1.124,1.484,1.124,1.483-1.124,1.483-1.124a7.848,7.848,0,0,1,2.163.625c.655.441.818,2.364.818,2.364H8.293Zm21.038-.991H20.019V23.393h9.312Zm0-2.091H20.019V21.3h9.312Zm0-2.091H20.019V19.211h9.312Zm0-2.091H20.019V17.121h9.312Z" transform="translate(-4.499 -7.712)" fill="#fff"/>
</svg>
