<svg xmlns="http://www.w3.org/2000/svg" width="33.3" height="22.96" viewBox="0 0 33.3 22.96">
  <path id="Icon_awesome-user-friends" data-name="Icon awesome-user-friends" d="M9.99,13.73a5.781,5.781,0,0,0,5.828-5.74,5.828,5.828,0,0,0-11.655,0A5.781,5.781,0,0,0,9.99,13.73Zm4,1.64h-.432a8.156,8.156,0,0,1-7.128,0H5.994A5.951,5.951,0,0,0,0,21.274V22.75a2.48,2.48,0,0,0,2.5,2.46H17.483a2.48,2.48,0,0,0,2.5-2.46V21.274A5.951,5.951,0,0,0,13.986,15.37Zm10.989-1.64a4.921,4.921,0,1,0-5-4.92A4.959,4.959,0,0,0,24.975,13.73Zm2.5,1.64h-.2a6.655,6.655,0,0,1-4.6,0h-.2a5.846,5.846,0,0,0-2.9.789,7.44,7.44,0,0,1,2.066,5.115v1.968c0,.113-.026.22-.031.328H30.8a2.48,2.48,0,0,0,2.5-2.46,5.781,5.781,0,0,0-5.828-5.74Z" transform="translate(0 -2.25)" fill="#fff"/>
</svg>
