<svg xmlns="http://www.w3.org/2000/svg" width="26" height="22.535" viewBox="0 0 26 22.535">
  <path id="Icon_metro-calendar" data-name="Icon metro-calendar" d="M11.237,10.379H14.7V13.2H11.237Zm5.2,0H19.9V13.2H16.437Zm5.2,0H25.1V13.2H21.637Zm-15.6,8.451H9.5v2.817H6.037Zm5.2,0H14.7v2.817H11.237Zm5.2,0H19.9v2.817H16.437Zm-5.2-4.225H14.7v2.817H11.237Zm5.2,0H19.9v2.817H16.437Zm5.2,0H25.1v2.817H21.637Zm-15.6,0H9.5v2.817H6.037ZM25.1,1.928V3.336H21.637V1.928H9.5V3.336H6.037V1.928H2.571V24.463h26V1.928H25.1Zm1.733,21.126H4.3V7.562H26.837Z" transform="translate(-2.571 -1.928)" fill="#fff"/>
</svg>
